She’s nineteen, her name is Rita. She works at the perfume shop at the mall. Today, she’s getting married. She goes to the hairdresser. Earthquake. She suddenly decides to cut her hair short. Paulo, her fiancé, is waiting at the town hall. –Rosa Filmes

Extras: Interviews, Deleted Scene, Making Of, Featurettes and Trailers.

Format                         : AVI
Format/Info                    : Audio Video Interleave
File size                      : 1.37 GiB
Duration                       : 1h 32mn
Overall bit rate               : 2 124 Kbps
Writing application            : VirtualDubMod 1.5.10.2 (build 2540/release)
Writing library                : VirtualDubMod build 2540/release

Video
ID                             : 0
Format                         : MPEG-4 Visual
Format profile                 : Advanced Simple@L5
Format settings, BVOP          : 1
Format settings, QPel          : No
Format settings, GMC           : No warppoints
Format settings, Matrix        : Default (MPEG)
Codec ID                       : XVID
Codec ID/Hint                  : XviD
Duration                       : 1h 32mn
Bit rate                       : 1 891 Kbps
Width                          : 720 pixels
Height                         : 448 pixels
Display aspect ratio           : 1.607
Frame rate                     : 25.000 fps
Color space                    : YUV
Chroma subsampling             : 4:2:0
Bit depth                      : 8 bits
Scan type                      : Progressive
Compression mode               : Lossy
Bits/(Pixel*Frame)             : 0.234
Stream size                    : 1.22 GiB (89%)
Writing library                : XviD 64

Audio
ID                             : 1
Format                         : AC-3
Format/Info                    : Audio Coding 3
Mode extension                 : CM (complete main)
Codec ID                       : 2000
Duration                       : 1h 32mn
Bit rate mode                  : Constant
Bit rate                       : 224 Kbps
Channel(s)                     : 2 channels
Channel positions              : Front: L R
Sampling rate                  : 48.0 KHz
Bit depth                      : 16 bits
Compression mode               : Lossy
Delay relative to video        : 16ms
Stream size                    : 148 MiB (11%)
Alignment                      : Split accross interleaves
Interleave, duration           : 40 ms (1.00 video frame)
Interleave, preload duration   : 500 ms
